<svg xmlns="http://www.w3.org/2000/svg" xmlns:se="http://svg-edit.googlecode.com" xmlns:xlink="http://www.w3.org/1999/xlink" xmlns:dc="http://purl.org/dc/elements/1.1/" xmlns:cc="http://creativecommons.org/ns#" xmlns:rdf="http://www.w3.org/1999/02/22-rdf-syntax-ns#" xmlns:inkscape="http://www.inkscape.org/namespaces/inkscape" width="777" height="480">                                    <title>my vector image</title>                                    <!-- Created with Vector Paint - http://www.vectorpaint.yaks.com/ https://chrome.google.com/webstore/detail/hnbpdiengicdefcjecjbnjnoifekhgdo -->                                    <rect id="backgroundrect" width="100%" height="100%" x="0" y="0" fill="#FFFFFF" stroke="none"/>                                <g class="currentLayer" style=""><title>Layer 1</title><polyline fill="none" stroke="#000000" stroke-width="2" stroke-linejoin="round" stroke-dashoffset="" fill-rule="nonzero" marker-start="" marker-mid="" marker-end="" id="svg_33" points="341.31265449523926,189.69012260437012 342.01687812805176,196.02813529968262 342.72110176086426,204.47884941101074 342.72110176086426,219.26759147644043 342.72110176086426,226.30982780456543 342.72110176086426,227.01405143737793 342.01687812805176,227.7182903289795 " style="color: rgb(0, 0, 0);" class=""/><polyline fill="none" stroke="#000000" stroke-width="2" stroke-linejoin="round" stroke-dashoffset="" fill-rule="nonzero" marker-start="" marker-mid="" marker-end="" id="svg_34" points="325.81970405578613,207.2957592010498 326.52392768859863,205.88729667663574 330.74926948547363,204.47884941101074 344.83377265930176,200.25350761413574 353.2844867706299,199.54926872253418 362.4394245147705,199.54926872253418 364.552095413208,199.54926872253418 364.552095413208,200.25350761413574 364.552095413208,200.95773124694824 363.8478717803955,204.47884941101074 352.5802631378174,212.2253246307373 350.4675922393799,215.0422191619873 349.0591449737549,216.45068168640137 346.24221992492676,216.45068168640137 345.53799629211426,216.45068168640137 346.24221992492676,216.45068168640137 351.1718158721924,216.45068168640137 360.326753616333,217.15490531921387 363.8478717803955,217.85912895202637 364.552095413208,218.56335258483887 365.2563190460205,218.56335258483887 365.2563190460205,219.26759147644043 363.8478717803955,219.97181510925293 358.2140522003174,221.38026237487793 347.6506977081299,224.90138053894043 337.79153633117676,226.30982780456543 336.38308906555176,226.30982780456543 335.67886543273926,226.30982780456543 336.38308906555176,226.30982780456543 341.31265449523926,226.30982780456543 346.9464740753174,226.30982780456543 " style="color: rgb(0, 0, 0);" class=""/><polyline fill="none" stroke="#000000" stroke-width="2" stroke-linejoin="round" stroke-dashoffset="" fill-rule="nonzero" marker-start="" marker-mid="" marker-end="" id="svg_35" points="382.15774726867676,206.59152030944824 382.15774726867676,205.88729667663574 381.45352363586426,205.88729667663574 380.74930000305176,205.88729667663574 378.63662910461426,207.2957592010498 377.9323444366455,210.1126537322998 377.228120803833,211.5211009979248 377.228120803833,213.63378715515137 377.228120803833,214.3379955291748 377.9323444366455,214.3379955291748 378.63662910461426,214.3379955291748 379.34085273742676,214.3379955291748 380.04507637023926,213.63378715515137 381.45352363586426,212.9295482635498 381.45352363586426,212.2253246307373 382.15774726867676,210.1126537322998 382.86197090148926,207.9999828338623 383.56619453430176,206.59152030944824 383.56619453430176,205.88729667663574 384.27041816711426,206.59152030944824 384.97464179992676,211.5211009979248 386.38308906555176,215.7464427947998 387.08731269836426,217.15490531921387 387.79153633117676,217.15490531921387 387.79153633117676,217.85912895202637 387.79153633117676,218.56335258483887 " style="color: rgb(0, 0, 0);" class=""/><polyline fill="none" stroke="#000000" stroke-width="2" stroke-linejoin="round" stroke-dashoffset="" fill-rule="nonzero" marker-start="" marker-mid="" marker-end="" id="svg_36" points="395.53799629211426,200.95773124694824 395.53799629211426,200.25350761413574 395.53799629211426,201.66193962097168 395.53799629211426,204.47884941101074 395.53799629211426,214.3379955291748 396.24221992492676,225.60560417175293 397.65066719055176,234.76054191589355 397.65066719055176,237.57743644714355 398.35489082336426,238.28166007995605 398.35489082336426,238.98588371276855 398.35489082336426,239.69010734558105 " style="color: rgb(0, 0, 0);" class=""/><polyline fill="none" stroke="#000000" stroke-width="2" stroke-linejoin="round" stroke-dashoffset="" fill-rule="nonzero" marker-start="" marker-mid="" marker-end="" id="svg_37" points="410.326753616333,231.9436321258545 411.0309772491455,231.239408493042 411.0309772491455,229.830961227417 411.0309772491455,228.422513961792 411.0309772491455,226.30982780456543 411.0309772491455,225.60560417175293 410.326753616333,225.60560417175293 409.6225299835205,224.90138053894043 408.918306350708,224.90138053894043 408.2140827178955,226.30982780456543 407.509859085083,227.7182903289795 407.509859085083,228.422513961792 407.509859085083,229.1267375946045 407.509859085083,231.239408493042 407.509859085083,231.9436321258545 408.2140827178955,231.9436321258545 408.918306350708,231.9436321258545 409.6225299835205,231.9436321258545 410.326753616333,231.9436321258545 411.0309772491455,230.5351848602295 411.0309772491455,229.830961227417 411.0309772491455,228.422513961792 411.0309772491455,227.01405143737793 411.0309772491455,226.30982780456543 411.735200881958,226.30982780456543 412.4394245147705,227.7182903289795 414.552095413208,231.239408493042 415.960542678833,233.3520793914795 417.368989944458,234.76054191589355 418.0732135772705,235.46476554870605 418.777437210083,235.46476554870605 418.777437210083,236.16898918151855 " style="color: rgb(0, 0, 0);" class=""/><polyline fill="none" stroke="#000000" stroke-width="2" stroke-linejoin="round" stroke-dashoffset="" fill-rule="nonzero" marker-start="" marker-mid="" marker-end="" id="svg_38" points="411.735200881958,207.2957592010498 411.735200881958,207.9999828338623 412.4394245147705,208.7042064666748 412.4394245147705,209.4084300994873 412.4394245147705,210.8168773651123 413.143648147583,212.9295482635498 413.143648147583,213.63378715515137 413.143648147583,215.0422191619873 413.143648147583,215.7464427947998 413.8478717803955,215.7464427947998 413.8478717803955,216.45068168640137 413.8478717803955,217.15490531921387 " style="color: rgb(0, 0, 0);" class=""/><polyline fill="none" stroke="#000000" stroke-width="2" stroke-linejoin="round" stroke-dashoffset="" fill-rule="nonzero" marker-start="" marker-mid="" marker-end="" id="svg_39" points="422.2985553741455,200.95773124694824 423.002779006958,200.95773124694824 423.7070026397705,200.95773124694824 427.9323444366455,200.95773124694824 432.86197090148926,200.95773124694824 434.27041816711426,200.95773124694824 434.97464179992676,200.95773124694824 434.97464179992676,202.36617851257324 434.97464179992676,204.47884941101074 434.97464179992676,210.1126537322998 433.56619453430176,225.60560417175293 431.45352363586426,241.80279350280762 431.45352363586426,246.73237419128418 431.45352363586426,250.95771598815918 431.45352363586426,253.07040214538574 430.74930000305176,253.77462577819824 430.74930000305176,254.47884941101074 431.45352363586426,254.47884941101074 432.15774726867676,254.47884941101074 432.86197090148926,254.47884941101074 434.27041816711426,254.47884941101074 437.08731269836426,254.47884941101074 439.19998359680176,254.47884941101074 440.60843086242676,254.47884941101074 441.31265449523926,254.47884941101074 " style="color: rgb(0, 0, 0);" class=""/><polyline fill="none" stroke="#000000" stroke-width="2" stroke-linejoin="round" stroke-dashoffset="" fill-rule="nonzero" marker-start="" marker-mid="" marker-end="" id="svg_40" points="427.9323444366455,227.7182903289795 428.636568069458,227.7182903289795 430.74930000305176,227.7182903289795 433.56619453430176,227.7182903289795 434.27041816711426,227.7182903289795 434.97464179992676,227.7182903289795 435.67886543273926,227.7182903289795 435.67886543273926,228.422513961792 " style="color: rgb(0, 0, 0);" class=""/><polyline fill="none" stroke="#000000" stroke-width="2" stroke-linejoin="round" stroke-dashoffset="" fill-rule="nonzero" marker-start="" marker-mid="" marker-end="" id="svg_41" points="453.98867988586426,229.1267375946045 453.28445625305176,229.1267375946045 452.58023262023926,228.422513961792 451.87600898742676,228.422513961792 451.17178535461426,228.422513961792 450.46756172180176,228.422513961792 449.76333808898926,228.422513961792 449.05911445617676,228.422513961792 448.35489082336426,229.1267375946045 447.65066719055176,229.830961227417 447.65066719055176,230.5351848602295 446.94644355773926,230.5351848602295 445.53799629211426,231.9436321258545 445.53799629211426,233.3520793914795 444.83377265930176,233.3520793914795 444.83377265930176,234.05631828308105 444.83377265930176,234.76054191589355 444.83377265930176,235.46476554870605 444.83377265930176,236.16898918151855 445.53799629211426,236.87321281433105 446.24221992492676,236.87321281433105 447.65066719055176,236.87321281433105 448.35489082336426,237.57743644714355 449.76333808898926,238.28166007995605 451.17178535461426,238.28166007995605 452.58023262023926,238.98588371276855 453.28445625305176,239.69010734558105 453.28445625305176,240.39434623718262 453.28445625305176,241.09856986999512 453.98867988586426,241.09856986999512 453.98867988586426,241.80279350280762 454.69290351867676,241.80279350280762 454.69290351867676,242.50701713562012 454.69290351867676,243.21124076843262 454.69290351867676,244.61968803405762 454.69290351867676,245.32391166687012 453.98867988586426,245.32391166687012 453.98867988586426,246.02813529968262 453.28445625305176,246.73237419128418 452.58023262023926,247.43659782409668 451.87600898742676,248.14082145690918 451.17178535461426,248.14082145690918 449.76333808898926,248.14082145690918 448.35489082336426,248.14082145690918 447.65066719055176,248.84504508972168 446.24221992492676,248.84504508972168 444.83377265930176,248.84504508972168 444.12954902648926,248.84504508972168 443.42532539367676,248.84504508972168 442.72110176086426,248.84504508972168 " style="color: rgb(0, 0, 0);" class=""/><polyline fill="none" stroke="#000000" stroke-width="2" stroke-linejoin="round" stroke-dashoffset="" fill-rule="nonzero" marker-start="" marker-mid="" marker-end="" id="svg_42" points="346.24221992492676,238.98588371276855 346.24221992492676,239.69010734558105 346.24221992492676,240.39434623718262 347.6506977081299,240.39434623718262 348.3549213409424,240.39434623718262 349.0591449737549,240.39434623718262 349.0591449737549,239.69010734558105 349.0591449737549,238.98588371276855 348.3549213409424,238.98588371276855 347.6506977081299,238.98588371276855 347.6506977081299,240.39434623718262 347.6506977081299,241.09856986999512 347.6506977081299,240.39434623718262 347.6506977081299,239.69010734558105 347.6506977081299,238.98588371276855 " style="color: rgb(0, 0, 0);" class=""/><polyline fill="none" stroke="#000000" stroke-width="2" stroke-linejoin="round" stroke-dashoffset="" fill-rule="nonzero" marker-start="" marker-mid="" marker-end="" id="svg_43" points="363.8478717803955,238.98588371276855 363.143648147583,238.98588371276855 362.4394245147705,238.98588371276855 362.4394245147705,239.69010734558105 362.4394245147705,240.39434623718262 363.143648147583,240.39434623718262 363.8478717803955,240.39434623718262 363.8478717803955,239.69010734558105 363.8478717803955,238.98588371276855 363.8478717803955,238.28166007995605 363.143648147583,238.28166007995605 363.143648147583,238.98588371276855 363.143648147583,240.39434623718262 362.4394245147705,241.09856986999512 362.4394245147705,241.80279350280762 363.143648147583,242.50701713562012 363.8478717803955,242.50701713562012 364.552095413208,242.50701713562012 364.552095413208,241.80279350280762 364.552095413208,240.39434623718262 364.552095413208,238.98588371276855 363.8478717803955,238.28166007995605 363.8478717803955,238.98588371276855 363.8478717803955,239.69010734558105 364.552095413208,239.69010734558105 365.2563190460205,239.69010734558105 365.960542678833,239.69010734558105 365.960542678833,238.98588371276855 365.2563190460205,238.98588371276855 " style="color: rgb(0, 0, 0);" class=""/><polyline fill="none" stroke="#000000" stroke-width="2" stroke-linejoin="round" stroke-dashoffset="" fill-rule="nonzero" marker-start="" marker-mid="" marker-end="" id="svg_44" points="339.19998359680176,246.02813529968262 339.90420722961426,246.02813529968262 339.90420722961426,246.73237419128418 340.60843086242676,246.73237419128418 341.31265449523926,246.73237419128418 341.31265449523926,247.43659782409668 342.01687812805176,247.43659782409668 342.01687812805176,248.14082145690918 342.72110176086426,248.14082145690918 343.42532539367676,248.14082145690918 343.42532539367676,248.84504508972168 344.12954902648926,248.84504508972168 344.83377265930176,248.84504508972168 345.53799629211426,248.84504508972168 346.24221992492676,249.54926872253418 346.9464740753174,249.54926872253418 347.6506977081299,250.25349235534668 348.3549213409424,250.25349235534668 349.0591449737549,250.25349235534668 350.4675922393799,250.25349235534668 351.1718158721924,250.25349235534668 351.1718158721924,250.95771598815918 352.5802631378174,250.95771598815918 353.2844867706299,250.95771598815918 353.9887104034424,250.95771598815918 354.6929340362549,250.95771598815918 355.3971576690674,250.95771598815918 356.1013813018799,250.95771598815918 356.8056049346924,250.95771598815918 357.5098285675049,250.95771598815918 358.2140522003174,250.95771598815918 358.9182758331299,250.95771598815918 359.6225299835205,250.95771598815918 360.326753616333,250.95771598815918 361.0309772491455,250.95771598815918 361.735200881958,250.95771598815918 362.4394245147705,250.95771598815918 363.143648147583,250.95771598815918 364.552095413208,250.25349235534668 365.2563190460205,249.54926872253418 365.960542678833,249.54926872253418 366.6647663116455,249.54926872253418 367.368989944458,248.84504508972168 368.0732135772705,248.84504508972168 368.777437210083,248.84504508972168 369.4816608428955,248.14082145690918 370.185884475708,248.14082145690918 370.8901081085205,247.43659782409668 371.594331741333,247.43659782409668 372.29858589172363,247.43659782409668 372.29858589172363,246.73237419128418 373.002779006958,246.73237419128418 373.7070026397705,246.02813529968262 374.411226272583,246.02813529968262 375.1154499053955,245.32391166687012 375.819673538208,245.32391166687012 376.5238971710205,244.61968803405762 " style="color: rgb(0, 0, 0);" class=""/></g></svg>
