<svg xmlns="http://www.w3.org/2000/svg" xmlns:se="http://svg-edit.googlecode.com" xmlns:xlink="http://www.w3.org/1999/xlink" xmlns:dc="http://purl.org/dc/elements/1.1/" xmlns:cc="http://creativecommons.org/ns#" xmlns:rdf="http://www.w3.org/1999/02/22-rdf-syntax-ns#" xmlns:inkscape="http://www.inkscape.org/namespaces/inkscape" width="777" height="480" style="">                                    <title>my vector image</title>                                    <!-- Created with Vector Paint - http://www.vectorpaint.yaks.com/ https://chrome.google.com/webstore/detail/hnbpdiengicdefcjecjbnjnoifekhgdo -->                                    <rect id="backgroundrect" width="100%" height="100%" x="0" y="0" fill="#FFFFFF" stroke="none"/>                                <g class="currentLayer" style=""><title>Layer 1</title><polyline fill="none" stroke="#000000" stroke-width="10" stroke-linejoin="round" stroke-dashoffset="" fill-rule="nonzero" marker-start="" marker-mid="" marker-end="" id="svg_1" points="115.88230514526367,116.60718154907227 116.58653259277344,140.55083847045898 117.99497985839844,165.19872665405273 120.10765838623047,215.90295028686523 121.51610946655273,228.57900619506836 122.92455673217773,238.43815231323242 122.92455673217773,239.14237594604492 " style="color: rgb(0, 0, 0);" class=""/><polyline fill="none" stroke="#000000" stroke-width="10" stroke-linejoin="round" stroke-dashoffset="" fill-rule="nonzero" marker-start="" marker-mid="" marker-end="" id="svg_2" points="89.12174415588379,129.2832374572754 89.82596969604492,129.2832374572754 101.09357452392578,127.87478256225586 118.6992073059082,127.17055892944336 142.6428680419922,127.17055892944336 172.92455291748047,127.17055892944336 201.09356689453125,127.17055892944336 216.5865249633789,129.2832374572754 220.81188201904297,129.9874610900879 220.81188201904297,131.3959083557129 220.1076431274414,132.10013961791992 215.1780776977539,134.21281051635742 208.84004974365234,139.84661483764648 190.53018951416016,146.18464279174805 172.92455291748047,151.8184471130371 158.84004974365234,153.2268943786621 154.6147003173828,155.33957290649414 153.91046905517578,155.33957290649414 153.20624542236328,155.33957290649414 153.20624542236328,156.04379653930664 158.13582611083984,156.04379653930664 160.24849700927734,157.45224380493164 179.96680450439453,158.86069869995117 209.54427337646484,161.67759323120117 267.2907485961914,168.01562118530273 289.1217269897461,171.5367546081543 297.57242584228516,173.6494255065918 298.9808883666992,174.3536491394043 298.9808883666992,175.76211166381836 298.9808883666992,176.46633529663086 297.57242584228516,179.28322982788086 291.2343978881836,187.02970504760742 287.7132797241211,188.43816757202148 262.36116790771484,198.29731369018555 225.03722381591797,202.5226707458496 195.4597625732422,205.3395652770996 152.50202178955078,208.86069869995117 130.67103576660156,208.86069869995117 122.92455673217773,208.86069869995117 122.22033309936523,208.86069869995117 121.51610946655273,209.56492233276367 120.10765838623047,209.56492233276367 " style="color: rgb(0, 0, 0);" class=""/><polyline fill="none" stroke="#000000" stroke-width="10" stroke-linejoin="round" stroke-dashoffset="" fill-rule="nonzero" marker-start="" marker-mid="" marker-end="" id="svg_3" points="339.8259506225586,144.07196426391602 339.8259506225586,143.36774063110352 337.0090560913086,137.73393630981445 336.3048324584961,137.02971267700195 334.8963851928711,134.21281051635742 332.78368377685547,133.50858688354492 329.96678924560547,133.50858688354492 328.55834197998047,133.50858688354492 323.6287612915039,134.21281051635742 313.06539154052734,138.43816757202148 308.1358108520508,149.00154495239258 305.3189163208008,157.45224380493164 304.6146926879883,165.19872665405273 304.6146926879883,169.4240837097168 306.7273635864258,172.9452018737793 310.2484817504883,173.6494255065918 315.17806243896484,174.3536491394043 317.29073333740234,174.3536491394043 318.6991958618164,173.6494255065918 321.5160903930664,171.5367546081543 323.6287612915039,166.60717391967773 327.14989471435547,155.33957290649414 327.14989471435547,143.36774063110352 327.14989471435547,131.3959083557129 327.14989471435547,129.2832374572754 327.14989471435547,129.9874610900879 327.85411834716797,132.80436325073242 330.67101287841797,150.40999221801758 339.8259506225586,166.60717391967773 343.3470687866211,172.9452018737793 345.4597396850586,175.76211166381836 346.8682174682617,177.17055892944336 347.5724411010742,178.57900619506836 347.5724411010742,179.28322982788086 " style="color: rgb(0, 0, 0);" class=""/><polyline fill="none" stroke="#000000" stroke-width="10" stroke-linejoin="round" stroke-dashoffset="" fill-rule="nonzero" marker-start="" marker-mid="" marker-end="" id="svg_4" points="382.07946014404297,99.70577621459961 382.78368377685547,101.11422348022461 383.48790740966797,110.2691535949707 384.19213104248047,122.2409782409668 386.3048324584961,166.60717391967773 392.6428451538086,223.6494255065918 396.8681869506836,267.31139755249023 396.8681869506836,303.93110275268555 396.8681869506836,326.4663200378418 396.8681869506836,334.9170341491699 397.5724105834961,340.5508232116699 398.2766647338867,342.6634941101074 " style="color: rgb(0, 0, 0);" class=""/><polyline fill="none" stroke="#000000" stroke-width="10" stroke-linejoin="round" stroke-dashoffset="" fill-rule="nonzero" marker-start="" marker-mid="" marker-end="" id="svg_5" points="490.5301742553711,245.48040390014648 490.5301742553711,244.07195663452148 487.71324920654297,242.66350936889648 483.48790740966797,239.84659957885742 470.81185150146484,239.14237594604492 458.1357955932617,239.14237594604492 444.0512924194336,245.48040390014648 432.78368377685547,260.9733695983887 425.74144744873047,278.5789909362793 422.92452239990234,295.48041915893555 425.03722381591797,301.81843185424805 432.78368377685547,308.8606986999512 439.8259506225586,310.2691459655762 445.4597396850586,310.2691459655762 451.0935592651367,308.8606986999512 467.29073333740234,294.7761650085449 468.69918060302734,289.1423759460449 472.22029876708984,270.12829208374023 475.03719329833984,253.9311180114746 475.74144744873047,241.95928573608398 475.74144744873047,239.14237594604492 475.74144744873047,238.43815231323242 475.74144744873047,239.14237594604492 475.74144744873047,239.84659957885742 475.74144744873047,241.95928573608398 477.85411834716797,249.00153732299805 481.37523651123047,265.90295028686523 485.60057830810547,287.0297050476074 488.4175033569336,315.9029350280762 491.9386215209961,329.9874382019043 492.6428451538086,329.9874382019043 493.3470687866211,329.9874382019043 493.3470687866211,329.2832145690918 493.3470687866211,328.5789909362793 492.6428451538086,328.5789909362793 491.9386215209961,328.5789909362793 491.2343978881836,328.5789909362793 491.2343978881836,327.8747673034668 " style="color: rgb(0, 0, 0);" class=""/><polyline fill="none" stroke="#000000" stroke-width="10" stroke-linejoin="round" stroke-dashoffset="" fill-rule="nonzero" marker-start="" marker-mid="" marker-end="" id="svg_6" points="494.7555160522461,186.32548141479492 494.7555160522461,189.14239120483398 494.7555160522461,194.07195663452148 495.4597396850586,201.11420822143555 496.1639633178711,203.2268943786621 497.5724105834961,205.3395652770996 497.5724105834961,207.4522361755371 497.5724105834961,208.15647506713867 " style="color: rgb(0, 0, 0);" class=""/><polyline fill="none" stroke="#000000" stroke-width="10" stroke-linejoin="round" stroke-dashoffset="" fill-rule="nonzero" marker-start="" marker-mid="" marker-end="" id="svg_7" points="528.5583419799805,102.52267074584961 530.671012878418,102.52267074584961 532.7836837768555,102.52267074584961 567.2907333374023,102.52267074584961 587.0090255737305,102.52267074584961 602.5020065307617,102.52267074584961 608.1357955932617,102.52267074584961 608.1357955932617,103.22690200805664 608.1357955932617,105.33957290649414 606.0231246948242,110.2691535949707 603.9104537963867,120.8325309753418 602.5020065307617,132.80436325073242 600.3893356323242,147.59309005737305 591.2343673706055,171.5367546081543 587.0090255737305,191.25506210327148 583.487907409668,207.4522361755371 581.3752365112305,218.71984481811523 579.9667892456055,230.69167709350586 577.1498641967773,237.02970504760742 575.0371932983398,251.81843185424805 572.2202987670898,260.9733695983887 568.6991806030273,272.9452018737793 567.2907333374023,282.80434799194336 565.1780319213867,289.8465995788574 563.0653610229492,299.00153732299805 560.9526901245117,302.52265548706055 560.2484664916992,308.1564750671387 558.8400192260742,313.7902641296387 558.1357955932617,317.3113822937012 556.7273483276367,321.5367546081543 555.3189010620117,324.3536491394043 554.6146774291992,328.5789909362793 553.9104537963867,330.6916618347168 553.2062301635742,333.5085868835449 553.2062301635742,335.6212577819824 552.5019760131836,336.3254814147949 552.5019760131836,337.0297050476074 552.5019760131836,338.4381523132324 551.7977523803711,339.1423759460449 551.0935287475586,341.2550468444824 549.6850814819336,342.6634941101074 548.9808578491211,344.7761650085449 548.9808578491211,345.4803886413574 548.2766342163086,348.29731369018555 547.5724105834961,349.70576095581055 546.8681869506836,351.11420822143555 546.1639633178711,352.52265548706055 546.1639633178711,353.22687911987305 545.4597396850586,353.22687911987305 545.4597396850586,354.63532638549805 544.7555160522461,356.74799728393555 542.6428451538086,358.86066818237305 541.9386215209961,360.2691459655762 541.2343978881836,363.0860404968262 541.2343978881836,363.7902641296387 539.8259506225586,365.1987113952637 539.8259506225586,365.9029350280762 539.121696472168,368.7198295593262 539.121696472168,369.4240531921387 538.4174728393555,370.1282768249512 538.4174728393555,370.8325004577637 537.713249206543,372.2409782409668 535.6005783081055,373.6494255065918 535.6005783081055,376.4663200378418 535.6005783081055,377.1705436706543 535.6005783081055,377.8747673034668 535.6005783081055,378.5789909362793 535.6005783081055,379.2832145690918 535.6005783081055,379.9874382019043 537.0090255737305,379.9874382019043 539.121696472168,379.9874382019043 549.6850814819336,379.2832145690918 566.5865097045898,378.5789909362793 582.7836837768555,377.1705436706543 591.2343673706055,376.4663200378418 596.8681564331055,375.7620964050293 604.6146774291992,374.3536491394043 606.0231246948242,374.3536491394043 606.0231246948242,373.6494255065918 605.3189010620117,372.2409782409668 " style="color: rgb(0, 0, 0);" class=""/><polyline fill="none" stroke="#000000" stroke-width="10" stroke-linejoin="round" stroke-dashoffset="" fill-rule="nonzero" marker-start="" marker-mid="" marker-end="" id="svg_8" points="546.8681869506836,310.2691459655762 547.5724105834961,310.2691459655762 548.2766342163086,310.2691459655762 553.2062301635742,310.2691459655762 555.3189010620117,310.2691459655762 559.5442428588867,310.2691459655762 560.2484664916992,310.2691459655762 562.3611373901367,310.2691459655762 563.7695846557617,310.9733695983887 565.1780319213867,310.9733695983887 " style="color: rgb(0, 0, 0);" class=""/><polyline fill="none" stroke="#000000" stroke-width="10" stroke-linejoin="round" stroke-dashoffset="" fill-rule="nonzero" marker-start="" marker-mid="" marker-end="" id="svg_9" points="558.8400192260742,312.3818168640137 560.9526901245117,312.3818168640137 565.8822860717773,312.3818168640137 570.1076278686523,312.3818168640137 572.2202987670898,312.3818168640137 573.6287460327148,312.3818168640137 575.0371932983398,312.3818168640137 575.7414169311523,312.3818168640137 576.4456405639648,312.3818168640137 577.1498641967773,312.3818168640137 577.8540878295898,312.3818168640137 579.262565612793,312.3818168640137 580.671012878418,312.3818168640137 581.3752365112305,312.3818168640137 " style="color: rgb(0, 0, 0);" class=""/><polyline fill="none" stroke="#000000" stroke-width="10" stroke-linejoin="round" stroke-dashoffset="" fill-rule="nonzero" marker-start="" marker-mid="" marker-end="" id="svg_10" points="670.8118209838867,266.60717391967773 670.8118209838867,265.90295028686523 670.8118209838867,264.4944877624512 670.8118209838867,263.7902641296387 670.8118209838867,260.9733695983887 668.6991500854492,260.2691459655762 667.9949264526367,259.5649223327637 665.8822555541992,258.8606834411621 664.4738082885742,257.4522361755371 658.8400192260742,257.4522361755371 658.1357955932617,257.4522361755371 657.4315719604492,257.4522361755371 651.7977828979492,258.8606834411621 638.4174728393555,260.9733695983887 625.7414474487305,267.31139755249023 617.2907028198242,271.53673934936523 616.5864791870117,273.6494255065918 615.1780319213867,277.8747673034668 615.1780319213867,280.69167709350586 615.1780319213867,281.39590072631836 615.8822555541992,282.80434799194336 617.9949264526367,284.91701889038086 618.6991500854492,284.91701889038086 621.5160446166992,286.3254814147949 626.445671081543,287.7339286804199 642.6428146362305,291.9592704772949 661.6569137573242,293.3677177429199 679.262565612793,294.7761650085449 687.713249206543,295.48041915893555 690.530143737793,296.18464279174805 692.6428146362305,296.88886642456055 695.4597091674805,296.88886642456055 696.163932800293,298.29731369018555 696.8681564331055,299.00153732299805 697.572380065918,299.00153732299805 699.6850509643555,299.70576095581055 700.389274597168,300.40998458862305 701.0935592651367,301.11420822143555 701.7977828979492,301.81843185424805 701.7977828979492,302.52265548706055 702.5020065307617,302.52265548706055 703.2062301635742,303.93110275268555 703.2062301635742,305.33955001831055 703.9104537963867,305.33955001831055 703.9104537963867,306.74799728393555 703.9104537963867,308.1564750671387 704.6146774291992,308.8606986999512 704.6146774291992,310.2691459655762 706.0231246948242,312.3818168640137 706.0231246948242,313.7902641296387 706.0231246948242,315.1987113952637 706.0231246948242,317.3113822937012 706.0231246948242,319.4240531921387 706.0231246948242,320.8325309753418 706.0231246948242,322.2409782409668 704.6146774291992,326.4663200378418 704.6146774291992,327.8747673034668 703.9104537963867,329.2832145690918 703.2062301635742,329.9874382019043 703.2062301635742,331.3958854675293 702.5020065307617,333.5085868835449 701.7977828979492,334.2128105163574 701.0935592651367,336.3254814147949 701.0935592651367,337.0297050476074 699.6850509643555,338.4381523132324 698.980827331543,339.1423759460449 696.163932800293,342.6634941101074 694.755485534668,344.0719413757324 691.938591003418,347.59309005737305 689.8259201049805,349.00153732299805 689.121696472168,350.40998458862305 688.4174728393555,351.11420822143555 686.304801940918,351.81843185424805 685.6005783081055,353.22687911987305 684.896354675293,353.22687911987305 682.7836837768555,355.33955001831055 682.079460144043,356.04377365112305 680.671012878418,356.04377365112305 679.9667892456055,356.74799728393555 678.5583419799805,357.45222091674805 677.854118347168,357.45222091674805 675.7414474487305,358.15644454956055 675.0371627807617,358.15644454956055 674.3329391479492,358.15644454956055 673.6287155151367,358.15644454956055 671.5160446166992,358.15644454956055 669.4033737182617,358.15644454956055 667.9949264526367,358.15644454956055 667.2907028198242,358.15644454956055 665.1780319213867,358.15644454956055 663.7695846557617,357.45222091674805 661.6569137573242,357.45222091674805 660.9526901245117,356.74799728393555 658.8400192260742,356.74799728393555 653.2062301635742,352.52265548706055 652.5020065307617,352.52265548706055 650.3893356323242,351.81843185424805 649.6851119995117,351.11420822143555 646.163932800293,351.11420822143555 645.4597091674805,350.40998458862305 644.0512619018555,349.70576095581055 640.530143737793,347.59309005737305 639.121696472168,346.1846122741699 638.4174728393555,346.1846122741699 637.713249206543,345.4803886413574 637.0090255737305,344.7761650085449 635.6005783081055,344.0719413757324 633.487907409668,342.6634941101074 632.079460144043,342.6634941101074 631.3752365112305,341.2550468444824 629.9667892456055,339.1423759460449 629.262565612793,338.4381523132324 628.5583419799805,336.3254814147949 627.1498947143555,335.6212577819824 627.1498947143555,334.9170341491699 626.445671081543,334.9170341491699 626.445671081543,334.2128105163574 " style="color: rgb(0, 0, 0);" class=""/><polyline fill="none" stroke="#000000" stroke-width="10" stroke-linejoin="round" stroke-dashoffset="" fill-rule="nonzero" marker-start="" marker-mid="" marker-end="" id="svg_11" points="167.2907485961914,271.53673934936523 167.2907485961914,272.2409782409668 168.69920349121094,272.9452018737793 169.40342712402344,272.9452018737793 170.81188201904297,272.9452018737793 171.51610565185547,272.9452018737793 171.51610565185547,272.2409782409668 171.51610565185547,271.53673934936523 171.51610565185547,270.83251571655273 170.81188201904297,270.83251571655273 169.40342712402344,270.83251571655273 169.40342712402344,271.53673934936523 168.69920349121094,272.2409782409668 168.69920349121094,273.6494255065918 168.69920349121094,275.0578727722168 168.69920349121094,275.7620964050293 169.40342712402344,275.7620964050293 170.81188201904297,275.7620964050293 172.22032928466797,275.7620964050293 172.92455291748047,275.7620964050293 172.92455291748047,275.0578727722168 172.92455291748047,273.6494255065918 172.92455291748047,272.9452018737793 172.92455291748047,272.2409782409668 172.92455291748047,271.53673934936523 171.51610565185547,271.53673934936523 169.40342712402344,271.53673934936523 167.99497985839844,271.53673934936523 167.2907485961914,273.6494255065918 167.2907485961914,275.0578727722168 167.99497985839844,277.1705436706543 170.81188201904297,278.5789909362793 172.92455291748047,279.28322982788086 174.3330078125,279.28322982788086 175.741455078125,279.28322982788086 176.4456787109375,278.5789909362793 177.85413360595703,277.8747673034668 177.85413360595703,277.1705436706543 177.85413360595703,273.6494255065918 177.85413360595703,272.2409782409668 175.741455078125,271.53673934936523 175.0372314453125,271.53673934936523 173.62877655029297,271.53673934936523 172.22032928466797,271.53673934936523 170.81188201904297,271.53673934936523 170.81188201904297,272.9452018737793 170.81188201904297,273.6494255065918 170.81188201904297,275.0578727722168 171.51610565185547,277.8747673034668 173.62877655029297,279.28322982788086 175.0372314453125,279.28322982788086 " style="color: rgb(0, 0, 0);" class=""/><polyline fill="none" stroke="#000000" stroke-width="10" stroke-linejoin="round" stroke-dashoffset="" fill-rule="nonzero" marker-start="" marker-mid="" marker-end="" id="svg_12" points="260.95272064208984,263.0860404968262 260.24849700927734,264.4944877624512 259.54427337646484,266.60717391967773 259.54427337646484,267.31139755249023 259.54427337646484,268.71984481811523 259.54427337646484,270.83251571655273 260.24849700927734,271.53673934936523 260.95272064208984,272.2409782409668 264.47383880615234,272.2409782409668 265.17806243896484,272.2409782409668 267.2907485961914,272.2409782409668 269.4034194946289,272.2409782409668 270.8118667602539,272.2409782409668 272.22032928466797,272.2409782409668 272.92455291748047,271.53673934936523 273.62877655029297,270.83251571655273 273.62877655029297,268.71984481811523 273.62877655029297,267.31139755249023 273.62877655029297,265.90295028686523 273.62877655029297,265.1987113952637 272.92455291748047,264.4944877624512 272.92455291748047,263.7902641296387 272.22032928466797,263.7902641296387 271.5160903930664,263.0860404968262 270.8118667602539,263.0860404968262 270.1076431274414,263.0860404968262 269.4034194946289,261.6775932312012 267.9949722290039,261.6775932312012 267.2907485961914,261.6775932312012 265.8823013305664,261.6775932312012 263.76961517333984,263.0860404968262 259.54427337646484,264.4944877624512 258.8400344848633,265.90295028686523 258.8400344848633,266.60717391967773 258.1358108520508,267.31139755249023 258.1358108520508,268.71984481811523 258.1358108520508,271.53673934936523 258.8400344848633,272.2409782409668 259.54427337646484,273.6494255065918 260.95272064208984,274.3536491394043 263.06539154052734,275.7620964050293 264.47383880615234,275.7620964050293 265.8823013305664,275.7620964050293 266.5865249633789,275.7620964050293 269.4034194946289,275.7620964050293 270.1076431274414,275.7620964050293 270.8118667602539,275.0578727722168 271.5160903930664,274.3536491394043 271.5160903930664,273.6494255065918 271.5160903930664,272.9452018737793 271.5160903930664,271.53673934936523 271.5160903930664,270.12829208374023 271.5160903930664,268.71984481811523 271.5160903930664,268.01562118530273 271.5160903930664,267.31139755249023 270.8118667602539,267.31139755249023 270.8118667602539,266.60717391967773 270.1076431274414,266.60717391967773 267.9949722290039,265.90295028686523 267.2907485961914,265.90295028686523 265.17806243896484,265.90295028686523 264.47383880615234,265.90295028686523 263.76961517333984,265.90295028686523 263.06539154052734,266.60717391967773 263.06539154052734,267.31139755249023 263.06539154052734,268.01562118530273 262.36116790771484,268.01562118530273 262.36116790771484,268.71984481811523 260.95272064208984,270.12829208374023 260.95272064208984,270.83251571655273 " style="color: rgb(0, 0, 0);" class=""/><polyline fill="none" stroke="#000000" stroke-width="10" stroke-linejoin="round" stroke-dashoffset="" fill-rule="nonzero" marker-start="" marker-mid="" marker-end="" id="svg_13" points="83.48794174194336,301.81843185424805 84.19216728210449,301.81843185424805 84.19216728210449,302.52265548706055 84.19216728210449,303.22687911987305 84.89639186859131,303.22687911987305 86.30484294891357,305.33955001831055 87.0090684890747,306.04377365112305 87.71329307556152,306.74799728393555 88.41751861572266,307.45222091674805 89.12174415588379,308.8606986999512 89.82596969604492,309.5649223327637 90.53019523620605,310.2691459655762 91.23442077636719,312.3818168640137 91.93864440917969,313.7902641296387 94.05132102966309,313.7902641296387 94.75554656982422,314.4944877624512 95.45977210998535,315.1987113952637 96.16399765014648,315.9029350280762 97.57244682312012,316.6071586608887 100.38934898376465,318.0156059265137 101.79780006408691,320.1282768249512 103.91047477722168,320.8325309753418 104.61470031738281,321.5367546081543 107.43160247802734,322.2409782409668 110.24850463867188,322.9452018737793 111.65695190429688,322.9452018737793 114.4738540649414,324.3536491394043 118.6992073059082,324.3536491394043 123.6287841796875,326.4663200378418 126.44568634033203,327.8747673034668 132.07948684692383,328.5789909362793 137.00906372070312,328.5789909362793 140.53018951416016,328.5789909362793 146.16399383544922,329.2832145690918 149.68511962890625,329.2832145690918 153.20624542236328,329.9874382019043 155.3189239501953,329.9874382019043 158.84004974365234,329.9874382019043 161.65695190429688,330.6916618347168 164.4738540649414,330.6916618347168 165.8823013305664,330.6916618347168 167.2907485961914,330.6916618347168 169.40342712402344,330.6916618347168 174.3330078125,330.6916618347168 182.07948303222656,330.6916618347168 188.41751098632812,330.6916618347168 195.4597625732422,330.6916618347168 198.98088836669922,330.6916618347168 203.20624542236328,330.6916618347168 206.02313995361328,330.6916618347168 210.24849700927734,330.6916618347168 215.1780776977539,330.6916618347168 222.22032928466797,330.6916618347168 224.33300018310547,330.6916618347168 228.55835723876953,330.6916618347168 231.37525177001953,330.6916618347168 241.93863677978516,330.6916618347168 246.86821746826172,330.6916618347168 251.09355926513672,330.6916618347168 256.7273635864258,330.6916618347168 262.36116790771484,330.6916618347168 267.9949722290039,330.6916618347168 275.03722381591797,330.6916618347168 278.55834197998047,329.9874382019043 280.67102813720703,329.2832145690918 286.3048324584961,328.5789909362793 291.93863677978516,328.5789909362793 293.34708404541016,328.5789909362793 296.16397857666016,327.8747673034668 298.9808883666992,327.1705436706543 300.3893356323242,327.1705436706543 301.0935592651367,327.1705436706543 303.2062301635742,327.1705436706543 307.4315872192383,325.0578727722168 309.5442581176758,324.3536491394043 311.65694427490234,323.6494255065918 311.65694427490234,325.0578727722168 311.65694427490234,326.4663200378418 311.65694427490234,327.1705436706543 312.36116790771484,327.1705436706543 313.76961517333984,326.4663200378418 315.17806243896484,324.3536491394043 315.88228607177734,324.3536491394043 317.29073333740234,323.6494255065918 319.4034194946289,322.9452018737793 320.8118667602539,321.5367546081543 322.2203140258789,320.8325309753418 322.9245376586914,320.8325309753418 324.33300018310547,318.0156059265137 325.74144744873047,317.3113822937012 327.14989471435547,315.9029350280762 328.55834197998047,315.1987113952637 329.96678924560547,313.7902641296387 330.67101287841797,313.0860404968262 331.37523651123047,312.3818168640137 333.4879379272461,310.9733695983887 334.8963851928711,310.2691459655762 335.6006088256836,309.5649223327637 336.3048324584961,309.5649223327637 336.3048324584961,308.8606986999512 337.0090560913086,308.8606986999512 337.7132797241211,308.1564750671387 338.4175033569336,308.1564750671387 339.8259506225586,306.74799728393555 340.5301742553711,306.74799728393555 341.2343978881836,306.04377365112305 342.6428451538086,305.33955001831055 343.3470687866211,303.93110275268555 344.0512924194336,303.22687911987305 344.0512924194336,302.52265548706055 344.7555160522461,302.52265548706055 345.4597396850586,301.81843185424805 346.8682174682617,301.81843185424805 346.8682174682617,301.11420822143555 346.8682174682617,300.40998458862305 347.5724411010742,300.40998458862305 348.2766647338867,299.70576095581055 348.2766647338867,299.00153732299805 " style="color: rgb(0, 0, 0);" class=""/></g></svg>